<svg xmlns="http://www.w3.org/2000/svg" viewBox="0 0 860 1200" role="img" aria-labelledby="title desc">
  <title id="title">The Paper Journey cover artwork</title>
  <desc id="desc">An editorial cover showing fibre, water, a forming sheet and a circular return path.</desc>
  <defs>
    <linearGradient id="ground" x1="0" y1="0" x2="1" y2="1">
      <stop offset="0" stop-color="#1b3a28"/>
      <stop offset=".58" stop-color="#244a32"/>
      <stop offset="1" stop-color="#13291d"/>
    </linearGradient>
    <linearGradient id="sheet" x1="0" y1="0" x2="1" y2="1">
      <stop offset="0" stop-color="#f5ecd8"/>
      <stop offset="1" stop-color="#cdb98e"/>
    </linearGradient>
    <filter id="grain">
      <feTurbulence baseFrequency=".72" numOctaves="3" seed="9" type="fractalNoise"/>
      <feColorMatrix values="1 0 0 0 0  0 1 0 0 0  0 0 1 0 0  0 0 0 .13 0"/>
    </filter>
  </defs>
  <rect width="860" height="1200" fill="url(#ground)"/>
  <rect width="860" height="1200" filter="url(#grain)" opacity=".62"/>
  <path d="M-40 215C170 88 339 153 468 282s211 122 420 5" fill="none" stroke="#d8ae70" stroke-width="3" opacity=".72"/>
  <path d="M-40 245C165 119 326 180 451 305s223 139 447 10" fill="none" stroke="#d8ae70" stroke-width="1.5" opacity=".28"/>
  <g transform="translate(122 282)">
    <path d="M57 203C163 38 378-42 584 89c-154-34-298 26-376 155-47 77-67 168-48 273C64 442 12 337 57 203Z" fill="#76946d" opacity=".72"/>
    <path d="M129 426c108-76 253-88 377-15-88 15-169 52-234 112-54 50-88 109-103 176-66-76-85-188-40-273Z" fill="#b57a52" opacity=".84"/>
    <path d="M197 185c93-53 213-47 301 17-85 0-158 23-221 70-52 39-91 90-115 153-35-89-22-181 35-240Z" fill="url(#sheet)" stroke="#eadbbd" stroke-width="3"/>
    <path d="M214 216c72-34 159-30 228 10M191 272c90-42 198-36 283 14M174 335c104-48 224-39 321 22" fill="none" stroke="#6b805f" stroke-width="2" opacity=".42"/>
    <circle cx="339" cy="325" r="205" fill="none" stroke="#e5bd7a" stroke-width="3" stroke-dasharray="8 14" opacity=".65"/>
    <path d="M498 449l54 10-29 46" fill="none" stroke="#e5bd7a" stroke-width="8" stroke-linecap="round" stroke-linejoin="round"/>
  </g>
  <g fill="none" stroke="#ead5a7" opacity=".28">
    <circle cx="696" cy="158" r="93"/>
    <circle cx="696" cy="158" r="67"/>
    <circle cx="696" cy="158" r="41"/>
  </g>
  <path d="M89 1020h682" stroke="#d8ae70" opacity=".45"/>
  <path d="M89 1042h430" stroke="#f3e7ce" opacity=".18"/>
</svg>
